<svg width="168" height="34" viewBox="0 0 168 34" fill="none" xmlns="http://www.w3.org/2000/svg">
<path d="M64.0179 0.336182V12.9333C64.5947 11.5029 65.4022 10.5108 66.4405 9.95707C67.5017 9.38028 68.6207 9.09188 69.7974 9.09188C70.7202 9.09188 71.4701 9.21878 72.0469 9.47256C72.6467 9.70328 73.1428 10.0263 73.535 10.4416C73.9503 10.8799 74.2502 11.4452 74.4348 12.1373C74.6194 12.8295 74.7116 13.7639 74.7116 14.9406V24.2154C74.7116 25.1844 74.8962 25.8419 75.2654 26.188C75.6576 26.5341 76.3036 26.7071 77.2034 26.7071V27.4339C76.7881 27.4108 76.1652 27.3877 75.3346 27.3646C74.504 27.3185 73.6965 27.2954 72.9121 27.2954C72.1045 27.2954 71.3086 27.3185 70.5241 27.3646C69.7628 27.3877 69.1975 27.4108 68.8284 27.4339V26.7071C69.6128 26.7071 70.1665 26.5341 70.4895 26.188C70.8125 25.8419 70.974 25.1844 70.974 24.2154V13.9715C70.974 13.3025 70.9164 12.7026 70.801 12.1719C70.6856 11.6182 70.4318 11.1799 70.0396 10.8569C69.6705 10.5108 69.1168 10.3378 68.3785 10.3378C67.5479 10.3378 66.7981 10.58 66.129 11.0645C65.483 11.5259 64.9639 12.172 64.5716 13.0025C64.2025 13.8331 64.0179 14.779 64.0179 15.8403V24.2154C64.0179 25.1844 64.1794 25.8419 64.5024 26.188C64.8254 26.5341 65.3792 26.7071 66.1636 26.7071V27.4339C65.7714 27.4108 65.1946 27.3877 64.4332 27.3646C63.6949 27.3185 62.9336 27.2954 62.1491 27.2954C61.3416 27.2954 60.511 27.3185 59.6574 27.3646C58.8268 27.3877 58.2039 27.4108 57.7886 27.4339V26.7071C58.6884 26.7071 59.3228 26.5341 59.692 26.188C60.0842 25.8419 60.2803 25.1844 60.2803 24.2154V4.48908C60.2803 3.45086 60.0957 2.68949 59.7266 2.20499C59.3805 1.69741 58.7345 1.44362 57.7886 1.44362V0.716865C58.5269 0.786079 59.2421 0.820686 59.9342 0.820686C60.6956 0.820686 61.4224 0.786079 62.1145 0.716865C62.8067 0.624578 63.4411 0.497684 64.0179 0.336182Z" fill="#342D2C"/>
<path d="M46.8556 9.19562V30.41C46.8556 31.4252 47.144 32.1058 47.7208 32.4519C48.2976 32.7979 49.0935 32.971 50.1087 32.971V33.6977C49.578 33.6747 48.8397 33.6401 47.8938 33.5939C46.9479 33.5708 45.9327 33.5593 44.8483 33.5593C44.087 33.5593 43.3371 33.5708 42.5988 33.5939C41.8606 33.6401 41.2953 33.6747 40.9031 33.6977V32.971C41.7106 32.971 42.2758 32.8095 42.5988 32.4865C42.9449 32.1865 43.118 31.6098 43.118 30.7561V13.3485C43.118 12.3103 42.9449 11.5489 42.5988 11.0644C42.2528 10.5568 41.5952 10.3031 40.6262 10.3031V9.5763C41.3645 9.64552 42.0797 9.68012 42.7719 9.68012C43.5333 9.68012 44.26 9.64552 44.9522 9.5763C45.6443 9.48401 46.2788 9.35712 46.8556 9.19562ZM52.3582 9.0918C53.5579 9.0918 54.6307 9.42634 55.5767 10.0954C56.5457 10.7414 57.307 11.6989 57.8608 12.9678C58.4145 14.2368 58.6913 15.8172 58.6913 17.7091C58.6913 19.0934 58.5298 20.4085 58.2068 21.6543C57.8838 22.8771 57.3878 23.9615 56.7187 24.9074C56.0727 25.8303 55.2537 26.5686 54.2616 27.1223C53.2695 27.653 52.0928 27.9183 50.7316 27.9183C49.7165 27.9183 48.8167 27.6991 48.0322 27.2607C47.2709 26.8224 46.7287 26.2687 46.4057 25.5996L46.7518 25.1151C47.0517 25.6919 47.467 26.1648 47.9976 26.534C48.5513 26.9031 49.232 27.0877 50.0395 27.0877C51.2392 27.0877 52.1736 26.707 52.8427 25.9457C53.5348 25.1612 54.0193 24.1115 54.2962 22.7964C54.5731 21.4582 54.7115 19.947 54.7115 18.2628C54.7115 16.3709 54.5731 14.8482 54.2962 13.6946C54.0193 12.5179 53.604 11.6643 53.0503 11.1336C52.4966 10.5799 51.8275 10.3031 51.0431 10.3031C50.0049 10.3031 49.0589 10.7183 48.2053 11.5489C47.3747 12.3795 46.8671 13.6254 46.6825 15.2865L46.3365 14.5598C46.6364 12.8294 47.3285 11.4913 48.4129 10.5453C49.5204 9.5763 50.8354 9.0918 52.3582 9.0918Z" fill="#342D2C"/>
<path d="M39.7975 0.301758V24.2155C39.7975 25.1846 39.9821 25.8421 40.3512 26.1882C40.7435 26.5343 41.3895 26.7073 42.2893 26.7073V27.434C41.8971 27.411 41.2857 27.3879 40.4551 27.3648C39.6245 27.3187 38.7939 27.2956 37.9633 27.2956C37.1328 27.2956 36.2906 27.3187 35.437 27.3648C34.6064 27.3879 33.9835 27.411 33.5682 27.434V26.7073C34.468 26.7073 35.1024 26.5343 35.4716 26.1882C35.8638 25.8421 36.0599 25.1846 36.0599 24.2155V4.45466C36.0599 3.41643 35.8869 2.65507 35.5408 2.17056C35.1947 1.66299 34.5372 1.4092 33.5682 1.4092V0.68244C34.3065 0.751656 35.0217 0.786263 35.7138 0.786263C36.4752 0.786263 37.202 0.751656 37.8941 0.68244C38.5863 0.590155 39.2207 0.46326 39.7975 0.301758Z" fill="#342D2C"/>
<path d="M24.2974 27.676C23.3284 27.676 22.4978 27.4915 21.8057 27.1223C21.1135 26.7532 20.5944 26.2456 20.2484 25.5996C19.9023 24.9536 19.7292 24.2153 19.7292 23.3847C19.7292 22.3695 19.96 21.5505 20.4214 20.9276C20.8828 20.2816 21.4712 19.7624 22.1864 19.3702C22.9247 18.978 23.6976 18.655 24.5051 18.4012C25.3357 18.1244 26.1086 17.8706 26.8238 17.6399C27.5621 17.3861 28.1619 17.0977 28.6234 16.7747C29.1079 16.4517 29.3501 16.0248 29.3501 15.4942V13.1409C29.3501 12.3103 29.2117 11.6528 28.9348 11.1682C28.6811 10.6607 28.3234 10.3031 27.862 10.0954C27.4237 9.88777 26.893 9.78395 26.2701 9.78395C25.7394 9.78395 25.1742 9.8647 24.5743 10.0262C23.9744 10.1646 23.5015 10.453 23.1554 10.8914C23.663 11.0298 24.0783 11.3067 24.4013 11.722C24.7473 12.1142 24.9204 12.6102 24.9204 13.2101C24.9204 13.8561 24.7012 14.3637 24.2628 14.7328C23.8475 15.102 23.3169 15.2865 22.6709 15.2865C21.9557 15.2865 21.425 15.0674 21.0789 14.629C20.7329 14.1676 20.5598 13.6369 20.5598 13.0371C20.5598 12.4141 20.7098 11.9065 21.0097 11.5143C21.3327 11.1221 21.748 10.753 22.2556 10.4069C22.8093 10.0377 23.513 9.72627 24.3667 9.47248C25.2434 9.21869 26.2124 9.0918 27.2737 9.0918C28.2658 9.0918 29.1194 9.20716 29.8346 9.43787C30.5729 9.64552 31.1843 9.99159 31.6688 10.4761C32.2456 11.0067 32.6263 11.6758 32.8109 12.4833C32.9955 13.2678 33.0877 14.2252 33.0877 15.3558V24.9074C33.0877 25.4842 33.157 25.8995 33.2954 26.1533C33.4569 26.384 33.7107 26.4994 34.0568 26.4994C34.2875 26.4994 34.5067 26.4417 34.7143 26.3263C34.945 26.211 35.2103 26.0379 35.5103 25.8072L35.8563 26.3956C35.3718 26.7878 34.8758 27.0992 34.3682 27.33C33.8837 27.5607 33.2608 27.676 32.4994 27.676C31.7611 27.676 31.1613 27.5607 30.6998 27.33C30.2384 27.0992 29.8923 26.7647 29.6616 26.3263C29.454 25.888 29.3501 25.3458 29.3501 24.6998C28.7503 25.6688 28.0351 26.4071 27.2045 26.9147C26.3739 27.4222 25.4049 27.676 24.2974 27.676ZM25.9586 26.0149C26.6046 26.0149 27.2045 25.8303 27.7582 25.4612C28.335 25.092 28.8656 24.5383 29.3501 23.8V16.9131C29.0963 17.2822 28.7272 17.6052 28.2427 17.8821C27.7582 18.1359 27.2391 18.4012 26.6854 18.6781C26.1316 18.9549 25.601 19.2779 25.0934 19.6471C24.6089 19.9932 24.2052 20.4431 23.8821 20.9968C23.5591 21.5505 23.3976 22.2542 23.3976 23.1078C23.3976 24.0076 23.6284 24.7229 24.0898 25.2535C24.5512 25.7611 25.1742 26.0149 25.9586 26.0149Z" fill="#342D2C"/>
<path d="M0 2.93188C0.530649 2.95496 1.21126 2.97803 2.04184 3.0011C2.8955 3.02417 3.73761 3.03571 4.56819 3.03571C5.67563 3.03571 6.72539 3.02417 7.71748 3.0011C8.73263 2.97803 9.44785 2.96649 9.86314 2.96649C11.8242 2.96649 13.4508 3.22028 14.7428 3.72786C16.0579 4.23543 17.0269 4.95065 17.6498 5.87352C18.2958 6.77332 18.6188 7.81154 18.6188 8.9882C18.6188 9.70342 18.4689 10.4648 18.1689 11.2723C17.8921 12.0567 17.396 12.795 16.6808 13.4872C15.9656 14.1563 14.9966 14.71 13.7738 15.1483C12.551 15.5867 10.9937 15.8059 9.10178 15.8059H5.77945V15.1137H8.7557C10.3015 15.1137 11.4782 14.8599 12.2857 14.3524C13.1162 13.8217 13.67 13.1296 13.9468 12.2759C14.2468 11.3992 14.3967 10.4302 14.3967 9.36888C14.3967 7.54622 14.0045 6.13885 13.2201 5.14676C12.4356 4.13161 11.0744 3.62403 9.13638 3.62403C8.1443 3.62403 7.48676 3.82014 7.16375 4.21236C6.86382 4.60458 6.71386 5.40055 6.71386 6.60028V23.7656C6.71386 24.5962 6.78307 25.2191 6.9215 25.6344C7.05993 26.0497 7.32526 26.3266 7.71748 26.465C8.10969 26.6034 8.68649 26.6957 9.44785 26.7419V27.434C8.89413 27.3879 8.19044 27.3648 7.33679 27.3648C6.50621 27.3417 5.65256 27.3302 4.77584 27.3302C3.80683 27.3302 2.8955 27.3417 2.04184 27.3648C1.21126 27.3648 0.530649 27.3879 0 27.434V26.7419C0.784437 26.6957 1.37276 26.6034 1.76498 26.465C2.1572 26.3266 2.41099 26.0497 2.52635 25.6344C2.66478 25.2191 2.73399 24.5962 2.73399 23.7656V6.60028C2.73399 5.74663 2.66478 5.12369 2.52635 4.73147C2.41099 4.31618 2.14567 4.03932 1.73038 3.90089C1.33816 3.73939 0.761365 3.64711 0 3.62403V2.93188ZM5.84867 15.2176C7.02532 15.2637 7.97126 15.3214 8.68649 15.3906C9.40171 15.4367 10.0016 15.4829 10.4861 15.529C10.9706 15.5752 11.4205 15.6328 11.8358 15.7021C13.5661 15.9328 14.8236 16.3942 15.608 17.0864C16.4155 17.7785 16.9692 18.8398 17.2691 20.2702L18.1343 23.8002C18.342 24.7923 18.5612 25.496 18.7919 25.9113C19.0457 26.3266 19.4148 26.5342 19.8993 26.5342C20.2685 26.5111 20.5684 26.4073 20.7991 26.2227C21.0529 26.0151 21.3182 25.7382 21.5951 25.3922L22.0796 25.7728C21.5489 26.4881 20.9952 27.0302 20.4184 27.3994C19.8416 27.7455 19.0687 27.9185 18.0997 27.9185C17.1076 27.9185 16.254 27.6647 15.5388 27.1571C14.8466 26.6265 14.3506 25.6344 14.0507 24.1809L13.3585 20.7201C13.1509 19.7281 12.9201 18.8744 12.6663 18.1592C12.4126 17.4209 12.055 16.8441 11.5935 16.4288C11.1552 16.0135 10.5091 15.8059 9.6555 15.8059H5.91788L5.84867 15.2176Z" fill="#342D2C"/>
<path d="M164.851 9.09204C165.52 9.09204 166.085 9.23047 166.546 9.50733C167.031 9.78419 167.389 10.1418 167.619 10.5802C167.873 10.9955 168 11.4684 168 11.9991C168 12.6682 167.792 13.2449 167.377 13.7294C166.985 14.1909 166.454 14.4216 165.785 14.4216C165.208 14.4216 164.712 14.2486 164.297 13.9025C163.905 13.5564 163.709 13.0834 163.709 12.4836C163.709 11.976 163.836 11.5492 164.089 11.2031C164.366 10.834 164.678 10.5456 165.024 10.3379C164.793 10.1533 164.516 10.0726 164.193 10.0957C163.57 10.1187 162.993 10.3264 162.463 10.7186C161.932 11.0877 161.482 11.5722 161.113 12.1721C160.744 12.7489 160.456 13.3718 160.248 14.0409C160.04 14.71 159.936 15.3329 159.936 15.9097V23.8694C159.936 25 160.248 25.7613 160.871 26.1535C161.494 26.5227 162.359 26.7073 163.466 26.7073V27.434C162.936 27.4109 162.174 27.3879 161.182 27.3648C160.213 27.3187 159.187 27.2956 158.102 27.2956C157.272 27.2956 156.441 27.3187 155.611 27.3648C154.78 27.3879 154.145 27.4109 153.707 27.434V26.7073C154.607 26.7073 155.241 26.5342 155.611 26.1882C156.003 25.8421 156.199 25.1845 156.199 24.2155V13.3488C156.199 12.3105 156.026 11.5492 155.68 11.0647C155.334 10.5571 154.676 10.3033 153.707 10.3033V9.57655C154.445 9.64576 155.161 9.68037 155.853 9.68037C156.637 9.68037 157.364 9.64576 158.033 9.57655C158.725 9.48426 159.36 9.35737 159.936 9.19586V13.1757C160.213 12.5066 160.582 11.8606 161.044 11.2377C161.505 10.6148 162.059 10.1072 162.705 9.71498C163.351 9.29969 164.066 9.09204 164.851 9.09204Z" fill="#342D2C"/>
<path d="M144.229 27.6763C143.26 27.6763 142.429 27.4917 141.737 27.1226C141.045 26.7534 140.526 26.2458 140.18 25.5998C139.834 24.9538 139.66 24.2155 139.66 23.3849C139.66 22.3698 139.891 21.5507 140.353 20.9278C140.814 20.2818 141.402 19.7627 142.118 19.3705C142.856 18.9783 143.629 18.6553 144.436 18.4015C145.267 18.1246 146.04 17.8708 146.755 17.6401C147.493 17.3863 148.093 17.0979 148.555 16.7749C149.039 16.4519 149.281 16.0251 149.281 15.4944V13.1411C149.281 12.3105 149.143 11.653 148.866 11.1685C148.612 10.6609 148.255 10.3033 147.793 10.0957C147.355 9.88801 146.824 9.78419 146.201 9.78419C145.671 9.78419 145.105 9.86494 144.506 10.0264C143.906 10.1649 143.433 10.4533 143.087 10.8916C143.594 11.0301 144.01 11.3069 144.333 11.7222C144.679 12.1144 144.852 12.6105 144.852 13.2103C144.852 13.8563 144.632 14.3639 144.194 14.7331C143.779 15.1022 143.248 15.2868 142.602 15.2868C141.887 15.2868 141.356 15.0676 141.01 14.6292C140.664 14.1678 140.491 13.6372 140.491 13.0373C140.491 12.4144 140.641 11.9068 140.941 11.5146C141.264 11.1223 141.679 10.7532 142.187 10.4071C142.741 10.038 143.444 9.72651 144.298 9.47272C145.175 9.21893 146.144 9.09204 147.205 9.09204C148.197 9.09204 149.051 9.2074 149.766 9.43812C150.504 9.64576 151.116 9.99184 151.6 10.4763C152.177 11.007 152.558 11.6761 152.742 12.4836C152.927 13.268 153.019 14.2255 153.019 15.356V24.9077C153.019 25.4845 153.088 25.8998 153.227 26.1535C153.388 26.3843 153.642 26.4996 153.988 26.4996C154.219 26.4996 154.438 26.4419 154.646 26.3266C154.876 26.2112 155.142 26.0382 155.442 25.8075L155.788 26.3958C155.303 26.788 154.807 27.0995 154.299 27.3302C153.815 27.5609 153.192 27.6763 152.431 27.6763C151.692 27.6763 151.093 27.5609 150.631 27.3302C150.17 27.0995 149.824 26.7649 149.593 26.3266C149.385 25.8882 149.281 25.346 149.281 24.7C148.682 25.669 147.966 26.4073 147.136 26.9149C146.305 27.4225 145.336 27.6763 144.229 27.6763ZM145.89 26.0151C146.536 26.0151 147.136 25.8305 147.689 25.4614C148.266 25.0922 148.797 24.5385 149.281 23.8002V16.9133C149.028 17.2825 148.658 17.6055 148.174 17.8823C147.689 18.1361 147.17 18.4015 146.617 18.6783C146.063 18.9552 145.532 19.2782 145.025 19.6473C144.54 19.9934 144.136 20.4433 143.813 20.997C143.49 21.5507 143.329 22.2544 143.329 23.1081C143.329 24.0079 143.56 24.7231 144.021 25.2537C144.482 25.7613 145.105 26.0151 145.89 26.0151Z" fill="#342D2C"/>
<path d="M133.574 9.09204C135.604 9.09204 137.196 9.70344 138.349 10.9262C139.503 12.149 140.08 14.0871 140.08 16.7403H128.14L128.071 16.0828H136.411C136.435 14.9522 136.342 13.914 136.135 12.9681C135.927 11.9991 135.604 11.2262 135.166 10.6494C134.727 10.0726 134.15 9.78419 133.435 9.78419C132.443 9.78419 131.578 10.3148 130.84 11.3761C130.124 12.4144 129.686 14.0871 129.525 16.3942L129.628 16.5673C129.605 16.8903 129.582 17.2479 129.559 17.6401C129.536 18.0092 129.525 18.3784 129.525 18.7475C129.525 20.3395 129.767 21.6776 130.251 22.762C130.736 23.8464 131.37 24.6654 132.155 25.2191C132.939 25.7498 133.735 26.0151 134.543 26.0151C135.166 26.0151 135.765 25.9228 136.342 25.7383C136.942 25.5306 137.507 25.1961 138.038 24.7346C138.569 24.2501 139.042 23.5926 139.457 22.762L140.149 23.0389C139.872 23.8233 139.445 24.5962 138.869 25.3576C138.292 26.1189 137.553 26.7419 136.654 27.2264C135.754 27.6878 134.704 27.9185 133.504 27.9185C131.889 27.9185 130.482 27.5609 129.282 26.8457C128.083 26.1074 127.16 25.0576 126.514 23.6964C125.868 22.3352 125.545 20.7202 125.545 18.8514C125.545 16.798 125.879 15.0445 126.548 13.591C127.217 12.1375 128.152 11.0301 129.352 10.2687C130.574 9.48426 131.982 9.09204 133.574 9.09204Z" fill="#342D2C"/>
<path d="M106.418 2.93188C106.949 2.95496 107.629 2.97803 108.46 3.0011C109.314 3.02417 110.156 3.03571 110.986 3.03571C112.094 3.03571 113.143 3.02417 114.136 3.0011C115.151 2.97803 115.866 2.96649 116.281 2.96649C118.865 2.96649 120.792 3.47407 122.061 4.48922C123.353 5.50437 123.999 6.80793 123.999 8.39987C123.999 9.20738 123.803 10.0149 123.41 10.8224C123.041 11.6068 122.43 12.3221 121.576 12.9681C120.723 13.591 119.592 14.087 118.185 14.4562V14.5254C120.123 14.733 121.645 15.1483 122.753 15.7713C123.86 16.3942 124.645 17.144 125.106 18.0208C125.568 18.8744 125.798 19.7742 125.798 20.7201C125.798 22.0814 125.452 23.2696 124.76 24.2847C124.068 25.2768 123.064 26.0497 121.749 26.6034C120.457 27.1571 118.9 27.434 117.077 27.434C116.57 27.434 115.797 27.4225 114.759 27.3994C113.743 27.3533 112.509 27.3302 111.055 27.3302C110.179 27.3302 109.314 27.3417 108.46 27.3648C107.629 27.3648 106.949 27.3879 106.418 27.434V26.7419C107.203 26.6957 107.791 26.6034 108.183 26.465C108.575 26.3266 108.829 26.0497 108.944 25.6344C109.083 25.2191 109.152 24.5962 109.152 23.7656V6.60028C109.152 5.74663 109.083 5.12369 108.944 4.73147C108.829 4.31618 108.564 4.03932 108.148 3.90089C107.756 3.73939 107.179 3.64711 106.418 3.62403V2.93188ZM115.554 3.62403C114.562 3.62403 113.905 3.82014 113.582 4.21236C113.282 4.60458 113.132 5.40055 113.132 6.60028V23.7656C113.132 24.5731 113.201 25.1845 113.34 25.5998C113.478 26.0151 113.72 26.292 114.066 26.4304C114.435 26.5688 114.966 26.638 115.658 26.638C117.735 26.638 119.234 26.1189 120.157 25.0807C121.103 24.0194 121.576 22.5197 121.576 20.5817C121.576 18.8052 121.103 17.4324 120.157 16.4634C119.234 15.4944 117.7 15.0099 115.554 15.0099H112.198C112.198 15.0099 112.198 14.9176 112.198 14.733C112.198 14.5254 112.198 14.4216 112.198 14.4216H115.174C116.443 14.4216 117.423 14.1678 118.115 13.6602C118.808 13.1296 119.281 12.4374 119.534 11.5838C119.788 10.707 119.915 9.77263 119.915 8.78055C119.915 7.07325 119.58 5.79277 118.911 4.93912C118.242 4.0624 117.123 3.62403 115.554 3.62403Z" fill="#342D2C"/>
<path d="M87.4186 3.03584C88.2953 3.03584 89.0105 3.12813 89.5642 3.3127C90.141 3.4742 90.6255 3.69338 91.0177 3.97024C91.3407 4.17789 91.6061 4.42014 91.8137 4.697C92.0444 4.97386 92.229 5.26226 92.3674 5.56219C92.5059 5.86212 92.5751 6.17359 92.5751 6.49659C92.5751 7.11953 92.3444 7.61557 91.8829 7.98471C91.4446 8.33079 90.9485 8.50383 90.3948 8.50383C89.8411 8.50383 89.3566 8.34232 88.9413 8.01932C88.5491 7.69632 88.353 7.23488 88.353 6.63502C88.353 6.10437 88.5375 5.64294 88.9067 5.25072C89.2758 4.83543 89.7373 4.59318 90.291 4.52396C90.1756 4.27017 89.8872 4.05099 89.4258 3.86642C88.9874 3.68185 88.4452 3.58956 87.7992 3.58956C86.5995 3.58956 85.6074 3.94717 84.823 4.66239C84.0616 5.37761 83.6809 6.43891 83.6809 7.84628C83.6809 8.44615 83.7848 9.06908 83.9924 9.71509C84.2231 10.3611 84.6615 11.0071 85.3075 11.6531C85.6997 11.5839 86.0804 11.5262 86.4495 11.4801C86.8418 11.4339 87.1532 11.4109 87.3839 11.4109C87.7992 11.4109 88.1222 11.4916 88.353 11.6531C88.6067 11.7915 88.7336 11.9992 88.7336 12.276C88.7336 12.4837 88.6413 12.6452 88.4568 12.7605C88.2722 12.8759 88.0415 12.9336 87.7646 12.9336C87.3263 12.9336 86.8764 12.8413 86.4149 12.6567C85.9535 12.4491 85.5959 12.276 85.3421 12.1376C84.0732 12.576 83.0465 13.2451 82.262 14.1448C81.5007 15.0216 81.12 16.2328 81.12 17.7786C81.12 19.3475 81.5353 20.6741 82.3659 21.7585C83.1964 22.8198 84.3269 23.6273 85.7574 24.181C87.1878 24.7347 88.8259 25.0116 90.6717 25.0116C91.8714 25.0116 93.025 24.8732 94.1324 24.5963C95.2398 24.3195 96.2204 23.9157 97.074 23.3851C97.9508 22.8313 98.6429 22.1738 99.1505 21.4124C99.6581 20.6511 99.9119 19.7743 99.9119 18.7823C99.9119 18.367 99.8311 17.8363 99.6696 17.1903C99.5081 16.5443 99.162 15.9098 98.6314 15.2869C98.1238 14.664 97.3278 14.1679 96.2435 13.7988L96.5895 13.4527C98.1353 13.9372 99.2543 14.7332 99.9465 15.8406C100.639 16.9481 100.985 18.1939 100.985 19.5782C100.985 21.0317 100.535 22.4045 99.635 23.6965C98.7583 24.9655 97.5009 25.9922 95.8628 26.7766C94.2247 27.538 92.2521 27.9186 89.9449 27.9186C88.3068 27.9186 86.7725 27.7225 85.3421 27.3303C83.9347 26.9381 82.7004 26.3728 81.6391 25.6345C80.5778 24.8732 79.7472 23.9618 79.1474 22.9005C78.5475 21.8393 78.2476 20.6395 78.2476 19.3014C78.2476 18.0324 78.4898 16.9596 78.9743 16.0829C79.4819 15.1831 80.1048 14.4448 80.8431 13.868C81.5814 13.2681 82.3197 12.8182 83.058 12.5183C83.7963 12.1953 84.3962 11.9761 84.8576 11.8608C84.0962 11.5378 83.4387 11.1571 82.885 10.7187C82.3543 10.2573 81.939 9.7497 81.6391 9.19598C81.3622 8.61918 81.2238 8.03086 81.2238 7.43099C81.2238 6.80806 81.3738 6.23127 81.6737 5.70062C81.9736 5.16997 82.3889 4.70854 82.9196 4.31632C83.4733 3.90103 84.1193 3.58956 84.8576 3.38191C85.619 3.1512 86.4726 3.03584 87.4186 3.03584ZM100.327 2.44751C101.827 2.44751 103.073 2.8628 104.065 3.69338C105.057 4.52396 105.553 5.68908 105.553 7.18874C105.553 8.11161 105.357 8.90758 104.965 9.57666C104.595 10.2457 104.065 10.8225 103.373 11.307C102.704 11.7915 101.919 12.1838 101.019 12.4837C100.558 12.6913 99.958 12.9221 99.2197 13.1758C98.4814 13.4066 97.697 13.6488 96.8664 13.9026C96.0358 14.1564 95.2398 14.3986 94.4785 14.6294C93.7402 14.8601 93.1288 15.0677 92.6443 15.2523C91.4907 15.5984 90.5563 16.0137 89.8411 16.4982C89.1259 16.9596 88.7682 17.5825 88.7682 18.367C88.7682 18.9668 88.9413 19.4744 89.2874 19.8897C89.6565 20.305 90.0949 20.6165 90.6024 20.8241C91.1331 21.0317 91.6407 21.1356 92.1252 21.1356C92.3097 21.1356 92.5405 21.1125 92.8173 21.0664C93.0942 21.0202 93.3364 20.951 93.5441 20.8587C93.7748 20.7664 93.9132 20.6511 93.9594 20.5126C93.521 20.4203 93.1288 20.2242 92.7827 19.9243C92.4597 19.6013 92.2982 19.1514 92.2982 18.5746C92.2982 17.9747 92.5059 17.5018 92.9211 17.1557C93.3595 16.8096 93.8902 16.6366 94.5131 16.6366C95.1591 16.6366 95.6667 16.8212 96.0358 17.1903C96.428 17.5595 96.6241 18.044 96.6241 18.6438C96.6241 19.3129 96.405 19.8782 95.9666 20.3396C95.5282 20.801 94.9745 21.1471 94.3054 21.3778C93.6364 21.5855 92.9442 21.6893 92.229 21.6893C91.4907 21.6893 90.7639 21.5509 90.0487 21.274C89.3566 20.9741 88.7798 20.5242 88.3183 19.9243C87.88 19.3014 87.6608 18.4939 87.6608 17.5018C87.6608 16.5558 87.88 15.7483 88.3183 15.0793C88.7567 14.3871 89.4027 13.7872 90.2564 13.2797C91.1331 12.7721 92.1828 12.3568 93.4056 12.0338C94.0286 11.8261 94.7669 11.607 95.6205 11.3762C96.4973 11.1455 97.3855 10.9033 98.2853 10.6495C99.1851 10.3726 100.016 10.0727 100.777 9.74969C102.092 9.24212 103.038 8.72301 103.615 8.19236C104.192 7.66171 104.48 7.06184 104.48 6.39277C104.48 5.72369 104.295 5.1469 103.926 4.66239C103.557 4.15482 103.061 3.75106 102.438 3.45113C101.838 3.1512 101.192 3.00123 100.5 3.00123C100.246 3.00123 100.027 3.0243 99.8426 3.07045C99.6811 3.09352 99.5658 3.16273 99.4966 3.27809C99.8888 3.43959 100.189 3.69338 100.396 4.03946C100.604 4.38553 100.708 4.72007 100.708 5.04307C100.708 5.61987 100.489 6.0813 100.05 6.42737C99.6119 6.75038 99.0928 6.91188 98.493 6.91188C97.9392 6.91188 97.4432 6.75038 97.0048 6.42737C96.5665 6.10437 96.3473 5.6314 96.3473 5.00847C96.3473 4.4086 96.5434 3.9241 96.9356 3.55495C97.3278 3.16273 97.8239 2.88587 98.4237 2.72437C99.0467 2.5398 99.6811 2.44751 100.327 2.44751Z" fill="#342D2C"/>
</svg>
