<svg width="24" height="25" viewBox="0 0 24 25" fill="none" xmlns="http://www.w3.org/2000/svg">
<path d="M18.437 21.3374H5.56299C4.89995 21.3374 4.26406 21.074 3.79522 20.6052C3.32638 20.1364 3.06299 19.5005 3.06299 18.8374V5.96344C3.06299 5.3004 3.32638 4.66451 3.79522 4.19567C4.26406 3.72683 4.89995 3.46344 5.56299 3.46344H18.437C19.1 3.46344 19.7359 3.72683 20.2048 4.19567C20.6736 4.66451 20.937 5.3004 20.937 5.96344V18.8374C20.937 19.5005 20.6736 20.1364 20.2048 20.6052C19.7359 21.074 19.1 21.3374 18.437 21.3374ZM5.56299 4.46344C5.16516 4.46344 4.78363 4.62148 4.50233 4.90278C4.22102 5.18408 4.06299 5.56562 4.06299 5.96344V18.8374C4.06299 19.2353 4.22102 19.6168 4.50233 19.8981C4.78363 20.1794 5.16516 20.3374 5.56299 20.3374H18.437C18.8348 20.3374 19.2163 20.1794 19.4976 19.8981C19.779 19.6168 19.937 19.2353 19.937 18.8374V5.96344C19.937 5.56562 19.779 5.18408 19.4976 4.90278C19.2163 4.62148 18.8348 4.46344 18.437 4.46344H5.56299Z" fill="black"/>
<path d="M12 16.9944C11.0914 16.9935 10.2034 16.7231 9.44842 16.2175C8.69341 15.712 8.10524 14.994 7.75825 14.1542C7.41126 13.3144 7.32104 12.3906 7.49898 11.4996C7.67693 10.6085 8.11505 9.79025 8.75797 9.14817C9.40089 8.50609 10.2197 8.06903 11.111 7.89225C12.0023 7.71547 12.926 7.8069 13.7653 8.15498C14.6046 8.50307 15.3219 9.09218 15.8264 9.84785C16.331 10.6035 16.6002 11.4918 16.6 12.4004C16.5984 13.6194 16.1131 14.7879 15.2506 15.6493C14.3881 16.5106 13.219 16.9944 12 16.9944ZM12 8.80044C11.2894 8.80143 10.595 9.01299 10.0046 9.40839C9.41419 9.8038 8.95418 10.3653 8.68271 11.022C8.41123 11.6787 8.34046 12.4011 8.47933 13.098C8.6182 13.7949 8.96049 14.435 9.46296 14.9375C9.96543 15.44 10.6055 15.7822 11.3024 15.9211C11.9993 16.06 12.7217 15.9892 13.3784 15.7177C14.0351 15.4463 14.5967 14.9863 14.9921 14.3958C15.3875 13.8054 15.599 13.111 15.6 12.4004C15.6 11.4457 15.2207 10.53 14.5456 9.85486C13.8705 9.17973 12.9548 8.80044 12 8.80044Z" fill="black"/>
<path d="M17.2 8.30546C17.7937 8.30546 18.275 7.82416 18.275 7.23046C18.275 6.63675 17.7937 6.15546 17.2 6.15546C16.6063 6.15546 16.125 6.63675 16.125 7.23046C16.125 7.82416 16.6063 8.30546 17.2 8.30546Z" fill="black"/>
</svg>
