<svg width="24" height="25" viewBox="0 0 24 25" fill="none" xmlns="http://www.w3.org/2000/svg">
<path d="M19.02 5.37546C17.631 3.98706 15.8614 3.04172 13.9352 2.65899C12.0089 2.27626 10.0124 2.47332 8.19808 3.22526C6.38379 3.9772 4.83322 5.25024 3.74243 6.88341C2.65165 8.51658 2.06964 10.4365 2.07001 12.4005C2.07001 15.0345 3.11604 17.5608 4.97813 19.4238C6.84023 21.2868 9.36595 22.3341 12 22.3355C13.3034 22.3355 14.5943 22.0807 15.8 21.5855C17.0016 21.078 18.0947 20.3447 19.02 19.4255C19.9426 18.503 20.6745 17.4078 21.1739 16.2024C21.6732 14.9971 21.9302 13.7052 21.9302 12.4005C21.9302 11.0958 21.6732 9.80385 21.1739 8.59849C20.6745 7.39313 19.9426 6.29794 19.02 5.37546ZM18.32 18.7155C16.8901 20.1516 15.0138 21.058 13 21.2855V14.7255H14.88C15.1452 14.7255 15.3996 14.6201 15.5871 14.4326C15.7747 14.245 15.88 13.9907 15.88 13.7255C15.88 13.4602 15.7747 13.2059 15.5871 13.0184C15.3996 12.8308 15.1452 12.7255 14.88 12.7255H13V9.98546C13 9.72025 13.1054 9.46589 13.2929 9.27836C13.4804 9.09082 13.7348 8.98546 14 8.98546H15.2C15.4652 8.98546 15.7196 8.8801 15.9071 8.69257C16.0947 8.50503 16.2 8.25068 16.2 7.98546C16.2 7.72025 16.0947 7.46589 15.9071 7.27836C15.7196 7.09082 15.4652 6.98546 15.2 6.98546H13.5C12.837 6.98546 12.2011 7.24885 11.7322 7.71769C11.2634 8.18654 11 8.82242 11 9.48546V12.7255H9.13001C8.86479 12.7255 8.61044 12.8308 8.4229 13.0184C8.23536 13.2059 8.13001 13.4602 8.13001 13.7255C8.13001 13.9907 8.23536 14.245 8.4229 14.4326C8.61044 14.6201 8.86479 14.7255 9.13001 14.7255H11V21.2855C9.1429 21.0736 7.39929 20.2836 6.01546 19.0271C4.63163 17.7706 3.67752 16.1112 3.28791 14.2831C2.89829 12.455 3.09287 10.5506 3.84414 8.83912C4.59541 7.12759 5.86541 5.69534 7.47476 4.74468C9.0841 3.79402 10.9514 3.373 12.813 3.54108C14.6746 3.70916 16.4363 4.45785 17.8494 5.68141C19.2624 6.90496 20.2553 8.54152 20.6879 10.3599C21.1204 12.1784 20.9708 14.0867 20.26 15.8155C19.8064 16.8982 19.1477 17.883 18.32 18.7155Z" fill="black"/>
</svg>
