<svg width="24" height="25" viewBox="0 0 24 25" fill="none" xmlns="http://www.w3.org/2000/svg">
<path d="M18.44 3.46045H5.56C4.89752 3.4623 4.26271 3.72628 3.79427 4.19472C3.32583 4.66316 3.06184 5.29798 3.06 5.96045V18.8405C3.06184 19.5029 3.32583 20.1377 3.79427 20.6062C4.26271 21.0746 4.89752 21.3386 5.56 21.3405H18.44C19.103 21.3405 19.7389 21.0771 20.2078 20.6082C20.6766 20.1394 20.94 19.5035 20.94 18.8405V5.96045C20.94 5.29741 20.6766 4.66152 20.2078 4.19268C19.7389 3.72384 19.103 3.46045 18.44 3.46045ZM19.94 18.8405C19.9374 19.2375 19.7785 19.6175 19.4978 19.8982C19.217 20.179 18.837 20.3378 18.44 20.3405H5.56C5.16298 20.3378 4.78297 20.179 4.50223 19.8982C4.2215 19.6175 4.06262 19.2375 4.06 18.8405V5.96045C4.06262 5.56343 4.2215 5.18342 4.50223 4.90269C4.78297 4.62195 5.16298 4.46307 5.56 4.46045H18.44C18.837 4.46307 19.217 4.62195 19.4978 4.90269C19.7785 5.18342 19.9374 5.56343 19.94 5.96045V18.8405Z" fill="black"/>
<path d="M6.37598 11.1484C6.37598 10.8832 6.48133 10.6289 6.66887 10.4413C6.85641 10.2538 7.11076 10.1484 7.37598 10.1484C7.64119 10.1484 7.89555 10.2538 8.08308 10.4413C8.27062 10.6289 8.37598 10.8832 8.37598 11.1484V17.6484C8.37598 17.9137 8.27062 18.168 8.08308 18.3555C7.89555 18.5431 7.64119 18.6484 7.37598 18.6484C7.11076 18.6484 6.85641 18.5431 6.66887 18.3555C6.48133 18.168 6.37598 17.9137 6.37598 17.6484V11.1484Z" fill="black"/>
<path d="M7.37598 8.14444C7.92826 8.14444 8.37598 7.69672 8.37598 7.14444C8.37598 6.59215 7.92826 6.14444 7.37598 6.14444C6.82369 6.14444 6.37598 6.59215 6.37598 7.14444C6.37598 7.69672 6.82369 8.14444 7.37598 8.14444Z" fill="black"/>
<path d="M17.62 13.7704V17.6504C17.62 17.9157 17.5147 18.17 17.3271 18.3575C17.1396 18.5451 16.8852 18.6504 16.62 18.6504C16.3548 18.6504 16.1004 18.5451 15.9129 18.3575C15.7254 18.17 15.62 17.9157 15.62 17.6504V13.7704C15.62 13.3421 15.4499 12.9313 15.147 12.6285C14.8441 12.3256 14.4333 12.1554 14.005 12.1554C13.5767 12.1554 13.1659 12.3256 12.863 12.6285C12.5602 12.9313 12.39 13.3421 12.39 13.7704V17.6504C12.39 17.9157 12.2847 18.17 12.0971 18.3575C11.9096 18.5451 11.6552 18.6504 11.39 18.6504C11.1248 18.6504 10.8704 18.5451 10.6829 18.3575C10.4954 18.17 10.39 17.9157 10.39 17.6504V11.1504C10.3941 10.8865 10.5008 10.6345 10.6875 10.4479C10.8741 10.2612 11.1261 10.1546 11.39 10.1504C11.5594 10.1458 11.7269 10.187 11.8747 10.2698C12.0226 10.3525 12.1454 10.4737 12.23 10.6204C12.7799 10.3088 13.4019 10.147 14.034 10.1512C14.666 10.1554 15.2858 10.3254 15.8315 10.6443C16.3772 10.9632 16.8296 11.4198 17.1435 11.9684C17.4573 12.517 17.6217 13.1384 17.62 13.7704Z" fill="black"/>
</svg>
