<svg width="24" height="25" viewBox="0 0 24 25" fill="none" xmlns="http://www.w3.org/2000/svg">
<g clip-path="url(#clip0_0_83)">
<path d="M12 2.83795C10.1087 2.83795 8.25991 3.39878 6.68736 4.44952C5.11482 5.50026 3.88917 6.99372 3.16541 8.74104C2.44164 10.4884 2.25227 12.4111 2.62125 14.266C2.99022 16.1209 3.90096 17.8248 5.2383 19.1622C6.57564 20.4995 8.27951 21.4102 10.1345 21.7792C11.9894 22.1482 13.9121 21.9588 15.6594 21.2351C17.4067 20.5113 18.9002 19.2856 19.9509 17.7131C21.0017 16.1405 21.5625 14.2917 21.5625 12.4005C21.5595 9.86523 20.5511 7.4347 18.7584 5.64203C16.9658 3.84936 14.5352 2.84093 12 2.83795ZM20.4197 11.8661C20.1141 11.8483 19.8066 11.838 19.5009 11.838C18.0665 11.8385 16.639 12.037 15.2588 12.4276C14.9181 11.3728 14.4645 10.3579 13.9059 9.40045C13.8928 9.37701 13.8778 9.35451 13.8647 9.33108C15.2999 8.48849 16.5909 7.42155 17.6888 6.17076C19.3037 7.64283 20.283 9.68516 20.4197 11.8661ZM16.8084 5.47139C15.7869 6.62652 14.5874 7.6111 13.2553 8.38795C12.1776 6.83441 10.8273 5.48894 9.27 4.4167C10.5212 3.98858 11.8555 3.86097 13.1651 4.0442C14.4747 4.22742 15.7228 4.71634 16.8084 5.47139ZM8.03532 4.95483C9.69308 5.9795 11.1278 7.32717 12.2541 8.91764C10.3025 9.85488 8.16492 10.3403 6 10.338C5.28335 10.3373 4.5677 10.2844 3.85875 10.1795C4.1639 9.07078 4.69156 8.03578 5.40959 7.13754C6.12763 6.23931 7.02101 5.49666 8.03532 4.95483ZM3.5625 12.4005C3.56242 12.0267 3.58716 11.6534 3.63657 11.283C4.4187 11.4026 5.20878 11.4628 6 11.463C8.38222 11.4656 10.7331 10.9203 12.8709 9.8692C12.8916 9.90389 12.9141 9.93764 12.9338 9.97233C13.4515 10.8589 13.8721 11.7987 14.1881 12.7755C13.3412 13.0818 12.5228 13.4617 11.7422 13.9108C9.64684 15.1196 7.86011 16.7976 6.52219 18.813C5.59407 18.0221 4.84876 17.0391 4.33775 15.9319C3.82674 14.8248 3.56223 13.6198 3.5625 12.4005ZM7.42407 19.4861C8.66977 17.592 10.3407 16.0151 12.3038 14.8811C13.0042 14.4784 13.7374 14.1356 14.4956 13.8564C14.7633 14.9665 14.8987 16.1044 14.8988 17.2464C14.8987 18.3229 14.7789 19.3961 14.5416 20.4461C13.3577 20.8203 12.1058 20.9283 10.8754 20.7623C9.64499 20.5964 8.46644 20.1606 7.42407 19.4861ZM15.7903 19.937C15.9455 19.0485 16.0236 18.1483 16.0238 17.2464C16.0231 15.9866 15.8701 14.7316 15.5681 13.5086C16.8475 13.1472 18.1706 12.9636 19.5 12.963C19.8047 12.963 20.1113 12.9733 20.4159 12.993C20.3115 14.4517 19.8304 15.8584 19.0197 17.0755C18.2089 18.2927 17.0962 19.2786 15.7903 19.937Z" fill="black"/>
</g>
<defs>
<clipPath id="clip0_0_83">
<rect width="24" height="24" fill="white" transform="translate(0 0.400452)"/>
</clipPath>
</defs>
</svg>
